<svg xmlns="http://www.w3.org/2000/svg" width="940" height="412" viewBox="0 0 940 412"><rect width="100%" height="100%" fill="#fff"/><text x="12" y="22" font-weight="bold">Records by label</text><text x="12" y="47">CONTRADICTED</text><rect x="190" y="32" width="220" height="20" fill="#4e91d9"/><text x="418" y="47">13</text><text x="12" y="77">INSUFFICIENT_EVIDENCE</text><rect x="190" y="62" width="84" height="20" fill="#4e91d9"/><text x="282" y="77">5</text><text x="12" y="107">SUPPORTED</text><rect x="190" y="92" width="220" height="20" fill="#4e91d9"/><text x="418" y="107">13</text><text x="420" y="22" font-weight="bold">Records by topic</text><text x="420" y="47">built-ins and sorting</text><rect x="650" y="32" width="176" height="20" fill="#43a6a0"/><text x="834" y="47">4</text><text x="420" y="77">collections and mutability</text><rect x="650" y="62" width="176" height="20" fill="#43a6a0"/><text x="834" y="77">4</text><text x="420" y="107">collections and performance</text><rect x="650" y="92" width="88" height="20" fill="#43a6a0"/><text x="746" y="107">2</text><text x="420" y="137">comprehensions</text><rect x="650" y="122" width="88" height="20" fill="#43a6a0"/><text x="746" y="137">2</text><text x="420" y="167">dictionaries</text><rect x="650" y="152" width="88" height="20" fill="#43a6a0"/><text x="746" y="167">2</text><text x="420" y="197">dictionaries and exceptions</text><rect x="650" y="182" width="88" height="20" fill="#43a6a0"/><text x="746" y="197">2</text><text x="420" y="227">exceptions</text><rect x="650" y="212" width="88" height="20" fill="#43a6a0"/><text x="746" y="227">2</text><text x="420" y="257">file handling and exceptions</text><rect x="650" y="242" width="88" height="20" fill="#43a6a0"/><text x="746" y="257">2</text><text x="420" y="287">functions</text><rect x="650" y="272" width="88" height="20" fill="#43a6a0"/><text x="746" y="287">2</text><text x="420" y="317">loops</text><rect x="650" y="302" width="88" height="20" fill="#43a6a0"/><text x="746" y="317">2</text><text x="420" y="347">pilot out-of-scope example</text><rect x="650" y="332" width="220" height="20" fill="#43a6a0"/><text x="878" y="347">5</text><text x="420" y="377">sets</text><rect x="650" y="362" width="88" height="20" fill="#43a6a0"/><text x="746" y="377">2</text></svg>